<svg width="18" height="21" viewBox="0 0 18 21" fill="none" xmlns="http://www.w3.org/2000/svg">
<g clip-path="url(#clip0_3736_5951)">
<path d="M18 13.9202V18.139C18.0003 18.2578 17.9756 18.3754 17.9272 18.4853C17.8789 18.5951 17.8079 18.6949 17.7183 18.7789C17.6287 18.8629 17.5222 18.9294 17.4051 18.9748C17.288 19.0201 17.1624 19.0433 17.0357 19.043H12.5357C11.6763 19.043 11.2464 18.0674 11.8527 17.4986L13.3071 16.1351L9 12.0971L4.69165 16.1388L6.14732 17.4986C6.75362 18.0674 6.32371 19.043 5.46429 19.043H0.964289C0.837568 19.0433 0.712033 19.0201 0.594897 18.9748C0.47776 18.9294 0.371332 18.8629 0.281727 18.7789C0.192121 18.6949 0.121104 18.5951 0.0727572 18.4853C0.02441 18.3754 -0.000314968 18.2578 3.02882e-06 18.139V13.9202C3.02882e-06 13.1141 1.04023 12.7111 1.64732 13.2799L3.10139 14.6434L7.41134 10.6055L3.10098 6.56376L1.64732 7.93109C1.04063 8.49987 3.02882e-06 8.09682 3.02882e-06 7.29074V3.07199C-0.000314968 2.95319 0.02441 2.8355 0.0727572 2.72568C0.121104 2.61587 0.192121 2.51609 0.281727 2.43209C0.371332 2.34808 0.47776 2.2815 0.594897 2.23618C0.712033 2.19085 0.837568 2.16767 0.964289 2.16797H5.46429C6.32371 2.16797 6.75362 3.14356 6.14732 3.71234L4.69286 5.0759L9 9.11384L13.3083 5.07213L11.8527 3.71234C11.2464 3.14356 11.6763 2.16797 12.5357 2.16797H17.0357C17.1624 2.16767 17.288 2.19085 17.4051 2.23618C17.5222 2.2815 17.6287 2.34808 17.7183 2.43209C17.8079 2.51609 17.8789 2.61587 17.9272 2.72568C17.9756 2.8355 18.0003 2.95319 18 3.07199V7.29074C18 8.09682 16.9598 8.49987 16.3527 7.93109L14.8986 6.56753L10.5887 10.6055L14.899 14.6472L16.3527 13.2836C16.9594 12.7111 18 13.1141 18 13.9202Z" fill="white"/>
</g>
<defs>
<clipPath id="clip0_3736_5951">
<rect width="18" height="19.2857" fill="white" transform="translate(0 0.960938)"/>
</clipPath>
</defs>
</svg>
