<svg width="24" height="20" viewBox="0 0 24 20" fill="none" xmlns="http://www.w3.org/2000/svg">
<g clip-path="url(#clip0_3736_5947)">
<path d="M19.8 16.957H4.2C3.87 16.957 3.6 17.2147 3.6 17.5296V18.6747C3.6 18.9896 3.87 19.2472 4.2 19.2472H19.8C20.13 19.2472 20.4 18.9896 20.4 18.6747V17.5296C20.4 17.2147 20.13 16.957 19.8 16.957ZM22.2 5.50614C21.2063 5.50614 20.4 6.2755 20.4 7.22377C20.4 7.47784 20.46 7.71401 20.565 7.9323L17.85 9.48532C17.2725 9.81454 16.5263 9.62846 16.1925 9.07023L13.1363 3.96742C13.5375 3.65253 13.8 3.18018 13.8 2.64342C13.8 1.69514 12.9938 0.925781 12 0.925781C11.0063 0.925781 10.2 1.69514 10.2 2.64342C10.2 3.18018 10.4625 3.65253 10.8638 3.96742L7.8075 9.07023C7.47375 9.62846 6.72375 9.81454 6.15 9.48532L3.43875 7.9323C3.54 7.71759 3.60375 7.47784 3.60375 7.22377C3.60375 6.2755 2.7975 5.50614 1.80375 5.50614C0.81 5.50614 0 6.2755 0 7.22377C0 8.17205 0.80625 8.94141 1.8 8.94141C1.8975 8.94141 1.995 8.92709 2.08875 8.91278L4.8 15.8119H19.2L21.9113 8.91278C22.005 8.92709 22.1025 8.94141 22.2 8.94141C23.1938 8.94141 24 8.17205 24 7.22377C24 6.2755 23.1938 5.50614 22.2 5.50614Z" fill="white"/>
</g>
<defs>
<clipPath id="clip0_3736_5947">
<rect width="24" height="18.3214" fill="white" transform="translate(0 0.925781)"/>
</clipPath>
</defs>
</svg>
