<svg width="13" height="21" viewBox="0 0 13 21" fill="none" xmlns="http://www.w3.org/2000/svg">
<g clip-path="url(#clip0_3751_6334)">
<path d="M8.43345 10.1829L12.8096 5.89805C13.0627 5.65023 13.0627 5.24808 12.8096 4.99986L11.7927 4.00422C11.5396 3.75641 11.1289 3.75641 10.8754 4.00422L6.4997 8.2895L2.12357 4.00462C1.87048 3.7568 1.45976 3.7568 1.20626 4.00462L0.18982 4.99986C-0.0632734 5.24768 -0.0632734 5.64983 0.18982 5.89805L4.56595 10.1829L0.18982 14.4678C-0.0632734 14.7156 -0.0632734 15.1178 0.18982 15.366L1.20666 16.3616C1.45976 16.6094 1.87048 16.6094 2.12398 16.3616L6.4997 12.0764L10.8758 16.3612C11.1289 16.6091 11.5396 16.6091 11.7931 16.3612L12.81 15.3656C13.0631 15.1178 13.0631 14.7156 12.81 14.4674L8.43345 10.1829Z" fill="black"/>
</g>
<defs>
<clipPath id="clip0_3751_6334">
<rect width="13" height="20.3663" fill="white"/>
</clipPath>
</defs>
</svg>
