<svg width="25" height="30" viewBox="0 0 25 30" fill="none" xmlns="http://www.w3.org/2000/svg">
<g clip-path="url(#clip0_4323_5878)">
<path d="M1.78571 27.1875C1.78571 27.9334 2.06792 28.6488 2.57025 29.1762C3.07258 29.7037 3.75388 30 4.46429 30H20.5357C21.2461 30 21.9274 29.7037 22.4298 29.1762C22.9321 28.6488 23.2143 27.9334 23.2143 27.1875V7.50001H1.78571V27.1875ZM16.9643 12.1875C16.9643 11.9389 17.0584 11.7004 17.2258 11.5246C17.3932 11.3488 17.6203 11.25 17.8571 11.25C18.0939 11.25 18.321 11.3488 18.4885 11.5246C18.6559 11.7004 18.75 11.9389 18.75 12.1875V25.3125C18.75 25.5611 18.6559 25.7996 18.4885 25.9754C18.321 26.1512 18.0939 26.25 17.8571 26.25C17.6203 26.25 17.3932 26.1512 17.2258 25.9754C17.0584 25.7996 16.9643 25.5611 16.9643 25.3125V12.1875ZM11.6071 12.1875C11.6071 11.9389 11.7012 11.7004 11.8687 11.5246C12.0361 11.3488 12.2632 11.25 12.5 11.25C12.7368 11.25 12.9639 11.3488 13.1313 11.5246C13.2988 11.7004 13.3929 11.9389 13.3929 12.1875V25.3125C13.3929 25.5611 13.2988 25.7996 13.1313 25.9754C12.9639 26.1512 12.7368 26.25 12.5 26.25C12.2632 26.25 12.0361 26.1512 11.8687 25.9754C11.7012 25.7996 11.6071 25.5611 11.6071 25.3125V12.1875ZM6.25 12.1875C6.25 11.9389 6.34407 11.7004 6.51151 11.5246C6.67896 11.3488 6.90606 11.25 7.14286 11.25C7.37966 11.25 7.60676 11.3488 7.7742 11.5246C7.94165 11.7004 8.03571 11.9389 8.03571 12.1875V25.3125C8.03571 25.5611 7.94165 25.7996 7.7742 25.9754C7.60676 26.1512 7.37966 26.25 7.14286 26.25C6.90606 26.25 6.67896 26.1512 6.51151 25.9754C6.34407 25.7996 6.25 25.5611 6.25 25.3125V12.1875ZM24.1071 1.87501H17.4107L16.8862 0.779307C16.775 0.545058 16.6039 0.348012 16.3919 0.210338C16.18 0.0726632 15.9356 -0.00017742 15.6864 1.02731e-05H9.30804C9.05936 -0.000993469 8.81545 0.0715755 8.60424 0.209403C8.39304 0.34723 8.22308 0.544741 8.11384 0.779307L7.58929 1.87501H0.892857C0.656057 1.87501 0.428955 1.97378 0.261512 2.1496C0.0940686 2.32541 0 2.56387 0 2.81251L0 4.68751C0 4.93615 0.0940686 5.17461 0.261512 5.35042C0.428955 5.52624 0.656057 5.62501 0.892857 5.62501H24.1071C24.3439 5.62501 24.571 5.52624 24.7385 5.35042C24.9059 5.17461 25 4.93615 25 4.68751V2.81251C25 2.56387 24.9059 2.32541 24.7385 2.1496C24.571 1.97378 24.3439 1.87501 24.1071 1.87501Z" fill="#2B2C3E"/>
</g>
<defs>
<clipPath id="clip0_4323_5878">
<rect width="25" height="30" fill="white"/>
</clipPath>
</defs>
</svg>
