<svg width="63" height="50" viewBox="0 0 63 50" fill="none" xmlns="http://www.w3.org/2000/svg">
<g clipPath="url(#clip0_2521_7962)">
<rect x="8.74707" y="7.14453" width="19.2428" height="25.0012" fill="white"/>
<path d="M37.4032 19.2855C37.4032 29.6043 29.1633 37.9693 18.9989 37.9693C8.83455 37.9693 0.594727 29.6043 0.594727 19.2855C0.594727 8.9666 8.83455 0.601562 18.9989 0.601562C29.1633 0.601562 37.4032 8.9666 37.4032 19.2855ZM26.8912 16.6238C27.2575 14.1377 25.3928 12.8012 22.843 11.9096L23.6701 8.54184L21.6506 8.03097L20.8454 11.31C20.3145 11.1757 19.7692 11.049 19.2274 10.9235L20.0384 7.62294L18.02 7.11207L17.1924 10.4786C16.7529 10.377 16.3215 10.2766 15.9028 10.171L15.9051 10.1604L13.12 9.45449L12.5828 11.644C12.5828 11.644 14.0812 11.9926 14.0495 12.0141C14.8675 12.2214 15.0153 12.7708 14.9905 13.2063L14.0484 17.0429C14.1048 17.0576 14.1778 17.0786 14.2583 17.1113C14.191 17.0943 14.1191 17.0756 14.0449 17.0576L12.7242 22.432C12.6241 22.6843 12.3705 23.0626 11.7987 22.919C11.8189 22.9488 10.3309 22.5471 10.3309 22.5471L9.32827 24.8936L11.9564 25.5586C12.4453 25.683 12.9244 25.8132 13.3961 25.9358L12.5603 29.3421L14.5775 29.8529L15.4052 26.4828C15.9401 26.63 16.4766 26.7713 17.0146 26.9067L16.1897 30.261L18.2092 30.7719L19.045 27.372C22.4886 28.0336 25.0782 27.7667 26.1681 24.6051C27.0465 22.0594 26.1244 20.591 24.3126 19.6334C25.632 19.3247 26.626 18.4437 26.8912 16.6238ZM22.277 23.1917C21.6529 25.7373 17.4304 24.3611 16.0615 24.0161L17.1705 19.5034C18.5394 19.8502 22.9292 20.5368 22.277 23.1917ZM22.9016 16.587C22.3322 18.9026 18.8177 17.7261 17.6777 17.4377L18.6831 13.3448C19.8232 13.6332 23.4946 14.1715 22.9016 16.587Z" fill="url(#paint0_linear_2521_7962)"/>
</g>
<g filter="url(#filter0_bi_2521_7962)">
<rect x="24.833" y="10.2891" width="37.6696" height="39.7077" rx="18.8348" fill="#BCE4F1" fill-opacity="0.5"/>
</g>
<defs>
<filter id="filter0_bi_2521_7962" x="20.833" y="6.28906" width="45.6694" height="47.707" filterUnits="userSpaceOnUse" color-interpolation-filters="sRGB">
<feFlood flood-opacity="0" result="BackgroundImageFix"/>
<feGaussianBlur in="BackgroundImage" stdDeviation="2"/>
<feComposite in2="SourceAlpha" operator="in" result="effect1_backgroundBlur_2521_7962"/>
<feBlend mode="normal" in="SourceGraphic" in2="effect1_backgroundBlur_2521_7962" result="shape"/>
<feColorMatrix in="SourceAlpha" type="matrix" values="0 0 0 0 0 0 0 0 0 0 0 0 0 0 0 0 0 0 127 0" result="hardAlpha"/>
<feOffset dx="0.2" dy="0.1"/>
<feGaussianBlur stdDeviation="0.5"/>
<feComposite in2="hardAlpha" operator="arithmetic" k2="-1" k3="1"/>
<feColorMatrix type="matrix" values="0 0 0 0 1 0 0 0 0 1 0 0 0 0 1 0 0 0 0.6 0"/>
<feBlend mode="normal" in2="shape" result="effect2_innerShadow_2521_7962"/>
</filter>
<linearGradient id="paint0_linear_2521_7962" x1="3.09021" y1="12.0019" x2="35.8522" y2="8.92841" gradientUnits="userSpaceOnUse">
<stop stop-color="#0B5CD6"/>
<stop offset="1" stop-color="#3D7EFF"/>
</linearGradient>
<clipPath id="clip0_2521_7962">
<rect width="37.9958" height="38.5732" fill="white"/>
</clipPath>
</defs>
</svg>
