<svg width="88" height="82" viewBox="0 0 88 82" fill="none" xmlns="http://www.w3.org/2000/svg">
<path d="M126.705 29.4441C119.258 64.8103 85.3449 87.4565 50.9567 80.026C16.5684 72.5955 -5.27222 37.9022 2.17407 2.53598C9.62036 -32.8302 43.5338 -55.4764 77.922 -48.0459C112.31 -40.6154 134.151 -5.92206 126.705 29.4441ZM93.0611 12.637C96.0946 4.38415 90.7502 -1.55969 82.7671 -6.47933L87.9957 -17.4171L81.532 -20.6444L76.4415 -9.99473C74.7423 -10.8432 72.9888 -11.6759 71.2463 -12.5022L76.372 -23.2214L69.9121 -26.4478L64.6825 -15.5145C63.269 -16.1841 61.882 -16.8437 60.5417 -17.5118L60.5571 -17.5462L51.6438 -22.0017L48.2464 -14.8903C48.2464 -14.8903 53.0642 -12.6002 52.9417 -12.5495C55.5594 -11.2412 55.663 -9.25 55.2649 -7.77541L49.3087 4.68515C49.489 4.77647 49.7209 4.9019 49.9697 5.07282C49.7542 4.96552 49.5244 4.84891 49.2864 4.73269L40.94 22.1874C40.4193 22.9787 39.2881 24.09 37.4575 23.1799C37.5041 23.2966 32.7598 20.8321 32.7598 20.8321L27.6745 28.1416L36.086 32.342C37.6503 33.1257 39.1775 33.9222 40.6846 34.6871L35.399 45.7506L41.8549 48.9761L47.087 38.0307C48.7907 38.9262 50.5038 39.8027 52.2261 40.6601L47.0149 51.5534L53.4786 54.7807L58.7596 43.7391C69.9328 48.5239 78.8865 49.5024 84.8554 39.4631C89.6641 31.3803 87.6042 25.6735 82.1653 21.0672C86.8521 20.9736 90.8507 18.6807 93.0611 12.637ZM72.7108 31.7743C68.7623 40.043 55.47 32.2395 51.0875 30.0562L58.096 15.4004C62.477 17.5896 76.8332 23.1521 72.7108 31.7743ZM79.5901 9.59447C75.9927 17.1145 64.9515 10.5132 61.3027 8.69133L67.6577 -4.60143C71.3068 -2.77956 83.3395 1.74927 79.5901 9.59447Z" fill="url(#paint0_linear_2521_7955)"/>
<defs>
<linearGradient id="paint0_linear_2521_7955" x1="15.8728" y1="-20.6029" x2="128.971" y2="-7.52543" gradientUnits="userSpaceOnUse">
<stop stop-color="#F6F7F9" stop-opacity="0.75"/>
<stop offset="1" stop-color="#EBF2FF"/>
</linearGradient>
</defs>
</svg>
