<svg width="82" height="82" viewBox="0 0 82 82" fill="none" xmlns="http://www.w3.org/2000/svg">
<path d="M58.9985 62.2291L14.327 17.7763C11.0725 14.5218 9.27637 10.1801 9.27637 5.5582C9.27637 0.953327 11.0589 -3.37152 14.2933 -6.62951C13.5438 -11.8389 15.1712 -17.3284 19.1683 -21.3289C19.175 -21.3356 19.1819 -21.3425 19.1886 -21.3527C18.4661 -26.545 20.0935 -32.0043 24.0772 -35.988C25.4276 -37.3384 27.6155 -37.3351 28.9658 -35.9915L60.1541 -4.87744C61.167 -3.86128 91.7684 24.7106 91.1809 26.0239C90.5867 27.3406 89.9439 31.4888 88.499 31.3876C81.4564 30.9622 93.401 43.9213 88.499 48.8198C83.5968 53.715 77.3258 44.513 77.7716 51.5016C77.8594 52.9398 75.0655 58.9563 73.7488 59.5472C72.4772 60.1262 60.0347 63.2706 58.9985 62.2291Z" fill="url(#paint0_linear_3591_6445)"/>
<path d="M75.4412 71.7262C70.816 71.7262 66.4744 69.9301 63.2129 66.6689L51.606 55.1261C50.5864 54.1099 50.3029 52.5704 50.8904 51.2571C51.4845 49.9439 52.8215 49.1706 54.2597 49.2248C61.1875 49.6772 68.0679 47.1114 72.9631 42.2126C77.8653 37.3139 80.4243 30.4976 79.9785 23.5092C79.8907 22.071 80.6942 20.7306 82.0042 20.1399C83.3209 19.5423 84.8045 18.3031 85.8172 19.3192L116.987 52.0338C118.338 53.3842 118.338 55.5721 116.987 56.919C113.01 60.8995 107.595 62.5469 102.348 61.8075C102.342 61.8142 102.335 61.8211 102.328 61.8278C98.3308 65.8217 92.8819 67.4592 87.6287 66.7063C84.3744 69.9437 80.053 71.7262 75.4412 71.7262Z" fill="url(#paint1_linear_3591_6445)"/>
<g filter="url(#filter0_bi_3591_6445)">
<path d="M33.8973 47.1015C21.717 34.9211 21.8412 15.1849 33.8973 3.14815C45.8485 -8.81601 65.5916 -9.11517 77.8471 3.14815C91.5087 16.81 88.3588 36.601 77.8471 47.1015C65.9332 59.0156 46.2104 59.407 33.8973 47.1015Z" fill="url(#paint2_linear_3591_6445)"/>
</g>
<path d="M1.01276 79.9956C-0.337587 78.6452 -0.337587 76.4574 1.01276 75.107L22.2164 53.9034C23.5668 52.553 25.7546 52.553 27.105 53.9034C28.4553 55.2537 28.4553 57.4416 27.105 58.792L5.90135 79.9956C4.55077 81.3459 2.36311 81.3459 1.01276 79.9956Z" fill="url(#paint3_linear_3591_6445)"/>
<path d="M21.7554 79.9955C20.4051 78.6451 20.4051 76.4572 21.7554 75.1069L36.0448 60.8174C37.3951 59.4671 39.583 59.4671 40.9334 60.8174C42.2837 62.1678 42.2837 64.3557 40.9334 65.706L26.644 79.9955C25.2934 81.3458 23.1058 81.3458 21.7554 79.9955Z" fill="url(#paint4_linear_3591_6445)"/>
<path d="M1.01276 59.2453C-0.337586 57.895 -0.337586 55.7071 1.01276 54.3568L15.3021 40.0674C16.6525 38.7171 18.8404 38.7171 20.1907 40.0674C21.5411 41.4178 21.5411 43.6057 20.1907 44.956L5.90134 59.2453C4.55076 60.5957 2.3631 60.5957 1.01276 59.2453Z" fill="url(#paint5_linear_3591_6445)"/>
<path d="M69.9731 11.0195C68.8742 9.92057 67.0936 9.92057 65.9946 11.0195L63.6026 13.4131C60.471 11.9365 56.641 12.4163 54.0592 14.998C52.4656 16.5916 51.5863 18.7128 51.5863 20.9685C51.5863 23.2215 52.4656 25.3425 54.0592 26.9361C55.1581 28.0324 55.1581 29.8182 54.0592 30.9146C52.9602 32.0135 51.1796 32.0135 50.0807 30.9146C49.5476 30.3815 49.2563 29.6755 49.2563 28.9254C49.2563 27.3703 47.9979 26.1119 46.4428 26.1119C44.8877 26.1119 43.6293 27.3703 43.6293 28.9254C43.6293 30.202 43.9401 31.4223 44.4745 32.5423L42.1235 34.8932C41.0246 35.9922 41.0246 37.7728 42.1235 38.8717C43.2225 39.9707 45.0029 39.9709 46.102 38.8717L48.4937 36.4801C52.1344 38.1961 55.7478 37.1866 58.0373 34.8934C61.0541 31.8766 61.1685 27.196 58.6559 23.8902C58.5186 23.5509 58.3124 23.2331 58.0373 22.9582C56.94 21.8609 56.9344 20.0826 58.0373 18.9797C59.1362 17.8862 60.9168 17.8834 62.0158 18.9825C62.5488 19.5099 62.8401 20.2161 62.8401 20.969C62.8401 22.5241 64.0985 23.7825 65.6536 23.7825C67.2087 23.7825 68.4671 22.5241 68.4671 20.969C68.4671 19.69 68.1567 18.4691 67.6229 17.3501L69.9727 14.9986C71.0721 13.8989 71.0721 12.1159 69.9731 11.0195Z" fill="white"/>
<defs>
<filter id="filter0_bi_3591_6445" x="20.8086" y="-9.9375" width="70.1416" height="70.1211" filterUnits="userSpaceOnUse" color-interpolation-filters="sRGB">
<feFlood flood-opacity="0" result="BackgroundImageFix"/>
<feGaussianBlur in="BackgroundImage" stdDeviation="2"/>
<feComposite in2="SourceAlpha" operator="in" result="effect1_backgroundBlur_3591_6445"/>
<feBlend mode="normal" in="SourceGraphic" in2="effect1_backgroundBlur_3591_6445" result="shape"/>
<feColorMatrix in="SourceAlpha" type="matrix" values="0 0 0 0 0 0 0 0 0 0 0 0 0 0 0 0 0 0 127 0" result="hardAlpha"/>
<feOffset dx="0.2" dy="0.1"/>
<feGaussianBlur stdDeviation="0.5"/>
<feComposite in2="hardAlpha" operator="arithmetic" k2="-1" k3="1"/>
<feColorMatrix type="matrix" values="0 0 0 0 1 0 0 0 0 1 0 0 0 0 1 0 0 0 0.6 0"/>
<feBlend mode="normal" in2="shape" result="effect2_innerShadow_3591_6445"/>
</filter>
<linearGradient id="paint0_linear_3591_6445" x1="16.6475" y1="-3.82928" x2="127.835" y2="103.948" gradientUnits="userSpaceOnUse">
<stop stop-color="#FCFDFE"/>
<stop offset="1" stop-color="#F2F9FF"/>
</linearGradient>
<linearGradient id="paint1_linear_3591_6445" x1="16.6475" y1="-3.82928" x2="127.835" y2="103.948" gradientUnits="userSpaceOnUse">
<stop stop-color="#FCFDFE"/>
<stop offset="1" stop-color="#F2F9FF"/>
</linearGradient>
<linearGradient id="paint2_linear_3591_6445" x1="85.0002" y1="-7" x2="16.5002" y2="55.5" gradientUnits="userSpaceOnUse">
<stop stop-color="#F5FAFF"/>
<stop offset="1" stop-color="#F3F9FF"/>
</linearGradient>
<linearGradient id="paint3_linear_3591_6445" x1="1.90629" y1="61.4689" x2="26.9263" y2="59.0861" gradientUnits="userSpaceOnUse">
<stop stop-color="#FCFEFE"/>
<stop offset="1" stop-color="#F2F9FF"/>
</linearGradient>
<linearGradient id="paint4_linear_3591_6445" x1="22.1802" y1="66.2736" x2="41.0477" y2="64.4767" gradientUnits="userSpaceOnUse">
<stop stop-color="#FCFEFE"/>
<stop offset="1" stop-color="#F2F9FF"/>
</linearGradient>
<linearGradient id="paint5_linear_3591_6445" x1="1.43752" y1="45.5235" x2="20.305" y2="43.7266" gradientUnits="userSpaceOnUse">
<stop stop-color="#FCFEFE"/>
<stop offset="1" stop-color="#F2F9FF"/>
</linearGradient>
</defs>
</svg>
