<svg width="50" height="50" viewBox="0 0 50 50" fill="none" xmlns="http://www.w3.org/2000/svg">
<path d="M24.9986 42.0448L6.07068 23.2095C4.69169 21.8305 3.93066 19.9909 3.93066 18.0325C3.93066 16.0814 4.68593 14.2489 6.05642 12.8684C5.73885 10.6611 6.42839 8.33515 8.12203 6.64005C8.12486 6.63722 8.12779 6.63429 8.13062 6.63C7.82447 4.42992 8.51402 2.11676 10.202 0.428792C10.7742 -0.14337 11.7012 -0.142003 12.2734 0.427327L25.4883 13.6108C25.9175 14.0413 38.8837 26.1477 38.6348 26.7041C38.383 27.262 38.1106 29.0197 37.4984 28.9768C34.5144 28.7965 39.5755 34.2875 37.4984 36.363C35.4213 38.4372 32.7642 34.5382 32.953 37.4994C32.9902 38.1088 31.8064 40.658 31.2485 40.9084C30.7098 41.1537 25.4377 42.4861 24.9986 42.0448Z" fill="url(#paint0_linear_3591_6414)"/>
<path d="M31.9656 46.0688C30.0059 46.0688 28.1663 45.3078 26.7843 43.926L21.8663 39.0351C21.4343 38.6046 21.3142 37.9522 21.5631 37.3958C21.8149 36.8394 22.3814 36.5117 22.9907 36.5347C25.9261 36.7264 28.8414 35.6392 30.9156 33.5635C32.9928 31.4879 34.077 28.5997 33.8882 25.6386C33.851 25.0292 34.1914 24.4613 34.7465 24.211C35.3044 23.9578 35.933 23.4327 36.3621 23.8632L49.5693 37.7249C50.1414 38.2971 50.1414 39.2241 49.5693 39.7948C47.8841 41.4814 45.5896 42.1794 43.3666 41.8661C43.3638 41.869 43.3608 41.8719 43.358 41.8747C41.6643 43.567 39.3555 44.2608 37.1296 43.9418C35.7508 45.3136 33.9197 46.0688 31.9656 46.0688Z" fill="url(#paint1_linear_3591_6414)"/>
<g filter="url(#filter0_bi_3591_6414)">
<path d="M14.3627 35.6374C9.20176 30.4764 9.2544 22.1139 14.3627 17.0138C19.4266 11.9444 27.7921 11.8176 32.9849 17.0138C38.7735 22.8025 37.4388 31.1882 32.9849 35.6374C27.9368 40.6856 19.58 40.8514 14.3627 35.6374Z" fill="#BCE4F1" fill-opacity="0.5"/>
</g>
<path d="M0.429122 49.5707C-0.143041 48.9985 -0.143041 48.0715 0.429122 47.4993L9.4134 38.5151C9.98557 37.9429 10.9126 37.9429 11.4848 38.5151C12.0569 39.0872 12.0569 40.0143 11.4848 40.5864L2.50049 49.5707C1.92823 50.1429 1.00128 50.1429 0.429122 49.5707Z" fill="url(#paint2_linear_3591_6414)"/>
<path d="M9.21818 49.5707C8.64602 48.9986 8.64602 48.0715 9.21818 47.4994L15.2728 41.4447C15.8449 40.8726 16.772 40.8726 17.3441 41.4447C17.9163 42.0169 17.9163 42.944 17.3441 43.5161L11.2895 49.5707C10.7173 50.1429 9.79034 50.1429 9.21818 49.5707Z" fill="url(#paint3_linear_3591_6414)"/>
<path d="M0.42912 40.7816C-0.14304 40.2095 -0.14304 39.2824 0.42912 38.7103L6.48373 32.6557C7.05589 32.0835 7.98293 32.0835 8.55509 32.6557C9.12725 33.2278 9.12725 34.1549 8.55509 34.727L2.50048 40.7816C1.92822 41.3538 1.00128 41.3538 0.42912 40.7816Z" fill="url(#paint4_linear_3591_6414)"/>
<path d="M29.6485 20.3492C29.1829 19.8836 28.4284 19.8836 27.9628 20.3492L26.9492 21.3634C25.6223 20.7378 23.9995 20.9411 22.9056 22.035C22.2303 22.7102 21.8578 23.609 21.8578 24.5647C21.8578 25.5194 22.2303 26.4181 22.9056 27.0933C23.3712 27.5578 23.3712 28.3145 22.9056 28.779C22.4399 29.2447 21.6855 29.2447 21.2198 28.779C20.9939 28.5532 20.8705 28.254 20.8705 27.9362C20.8705 27.2773 20.3373 26.7441 19.6784 26.7441C19.0195 26.7441 18.4863 27.2773 18.4863 27.9362C18.4863 28.4771 18.618 28.9942 18.8444 29.4687L17.8483 30.4649C17.3826 30.9305 17.3826 31.685 17.8483 32.1506C18.3139 32.6162 19.0683 32.6163 19.534 32.1506L20.5474 31.1372C22.09 31.8643 23.6211 31.4366 24.5911 30.4649C25.8694 29.1867 25.9179 27.2035 24.8532 25.8027C24.7951 25.6589 24.7077 25.5243 24.5911 25.4078C24.1262 24.9429 24.1238 24.1894 24.5911 23.7221C25.0568 23.2587 25.8112 23.2575 26.2769 23.7233C26.5027 23.9467 26.6262 24.246 26.6262 24.565C26.6262 25.2239 27.1594 25.7571 27.8183 25.7571C28.4772 25.7571 29.0104 25.2239 29.0104 24.565C29.0104 24.023 28.8789 23.5057 28.6527 23.0316L29.6484 22.0352C30.1142 21.5692 30.1142 20.8138 29.6485 20.3492Z" fill="white"/>
<defs>
<filter id="filter0_bi_3591_6414" x="6.51172" y="9.16406" width="34.3301" height="34.3223" filterUnits="userSpaceOnUse" color-interpolation-filters="sRGB">
<feFlood flood-opacity="0" result="BackgroundImageFix"/>
<feGaussianBlur in="BackgroundImage" stdDeviation="2"/>
<feComposite in2="SourceAlpha" operator="in" result="effect1_backgroundBlur_3591_6414"/>
<feBlend mode="normal" in="SourceGraphic" in2="effect1_backgroundBlur_3591_6414" result="shape"/>
<feColorMatrix in="SourceAlpha" type="matrix" values="0 0 0 0 0 0 0 0 0 0 0 0 0 0 0 0 0 0 127 0" result="hardAlpha"/>
<feOffset dx="0.2" dy="0.1"/>
<feGaussianBlur stdDeviation="0.5"/>
<feComposite in2="hardAlpha" operator="arithmetic" k2="-1" k3="1"/>
<feColorMatrix type="matrix" values="0 0 0 0 1 0 0 0 0 1 0 0 0 0 1 0 0 0 0.6 0"/>
<feBlend mode="normal" in2="shape" result="effect2_innerShadow_3591_6414"/>
</filter>
<linearGradient id="paint0_linear_3591_6414" x1="7.0539" y1="14.0549" x2="48.0464" y2="10.1509" gradientUnits="userSpaceOnUse">
<stop stop-color="#0B5CD6"/>
<stop offset="1" stop-color="#3D7EFF"/>
</linearGradient>
<linearGradient id="paint1_linear_3591_6414" x1="7.0539" y1="14.0549" x2="48.0464" y2="10.1509" gradientUnits="userSpaceOnUse">
<stop stop-color="#0B5CD6"/>
<stop offset="1" stop-color="#3D7EFF"/>
</linearGradient>
<linearGradient id="paint2_linear_3591_6414" x1="0.807722" y1="41.7207" x2="11.4091" y2="40.711" gradientUnits="userSpaceOnUse">
<stop stop-color="#0B5CD6"/>
<stop offset="1" stop-color="#0085FF"/>
</linearGradient>
<linearGradient id="paint3_linear_3591_6414" x1="9.39816" y1="43.7566" x2="17.3926" y2="42.9952" gradientUnits="userSpaceOnUse">
<stop stop-color="#0B5CD6"/>
<stop offset="1" stop-color="#0085FF"/>
</linearGradient>
<linearGradient id="paint4_linear_3591_6414" x1="0.609099" y1="34.9675" x2="8.60352" y2="34.2061" gradientUnits="userSpaceOnUse">
<stop stop-color="#0B5CD6"/>
<stop offset="1" stop-color="#0085FF"/>
</linearGradient>
</defs>
</svg>
