<svg width="63" height="50" viewBox="0 0 63 50" fill="none" xmlns="http://www.w3.org/2000/svg">
<g clipPath="url(#clip0_2521_8028)" filter="url(#filter0_bi_2521_8028)">
<g filter="url(#filter1_bi_2521_8028)">
<path d="M2.63656 5.05024L3.54476 3.78071C3.7856 3.44404 4.15019 3.2167 4.55848 3.14859C4.96678 3.08048 5.38542 3.17717 5.7225 3.41743L8.85726 5.64399L7.73422 2.65766C7.66053 2.46605 7.62559 2.26172 7.63143 2.0565C7.63727 1.85129 7.68378 1.64927 7.76825 1.46216C7.85273 1.27505 7.97349 1.10656 8.12354 0.966452C8.2736 0.826345 8.44996 0.717405 8.64242 0.645945L10.1073 0.0990698C10.2996 0.0271037 10.5043 -0.00623553 10.7095 0.000959108C10.9148 0.00815375 11.1166 0.0557411 11.3034 0.140999C11.4903 0.226257 11.6585 0.347514 11.7984 0.497833C11.9384 0.648152 12.0473 0.824584 12.119 1.01704L14.0623 6.20259L16.0057 1.0268C16.0774 0.83435 16.1863 0.657917 16.3263 0.507598C16.4662 0.357279 16.6344 0.236023 16.8213 0.150765C17.0081 0.0655067 17.2099 0.0179194 17.4152 0.0107247C17.6204 0.00353009 17.8251 0.0368693 18.0174 0.108835L19.4823 0.65571C19.6747 0.727406 19.8511 0.836339 20.0015 0.976279C20.1518 1.11622 20.273 1.28442 20.3583 1.47126C20.4436 1.65811 20.4911 1.85992 20.4983 2.06517C20.5055 2.27042 20.4722 2.47508 20.4002 2.66743L19.2772 5.65571L22.4022 3.41938C22.5685 3.29905 22.7571 3.2129 22.9569 3.16592C23.1567 3.11893 23.3639 3.11204 23.5664 3.14564C23.769 3.17924 23.9628 3.25267 24.1368 3.36168C24.3107 3.47069 24.4614 3.61311 24.5799 3.78071L25.4881 5.05024C25.6081 5.21651 25.694 5.40491 25.7409 5.60455C25.7877 5.8042 25.7945 6.01114 25.7609 6.21343C25.7273 6.41573 25.654 6.60936 25.5451 6.78316C25.4363 6.95696 25.2941 7.10747 25.1268 7.22602L22.1317 9.37446H5.99301L2.99789 7.22602C2.66209 6.98492 2.43552 6.62057 2.3678 6.21277C2.30007 5.80496 2.39672 5.38694 2.63656 5.05024ZM21.8748 24.9995V33.5932H39.8436V24.9995H33.41C31.8206 25.0027 30.2826 24.437 29.0741 23.4047H29.0692L29.0633 23.3989L29.0438 23.3823L29.0243 23.3647C28.5296 22.9278 28.0958 22.4266 27.7342 21.8745H24.9998C24.171 21.8745 23.3762 22.2037 22.7901 22.7898C22.2041 23.3758 21.8748 24.1707 21.8748 24.9995ZM44.5311 49.9995H59.3748C60.2036 49.9995 60.9985 49.6702 61.5845 49.0842C62.1706 48.4981 62.4998 47.7033 62.4998 46.8745V38.2807H44.5311V49.9995ZM59.3748 21.8745H56.6405C56.2783 22.4238 55.8445 22.9224 55.3504 23.3569L55.3309 23.3745L55.3114 23.3911L55.3045 23.3969H55.2996C54.0925 24.4318 52.5547 25.0003 50.9647 24.9995H44.5311V33.5932H62.4998V24.9995C62.4998 24.1707 62.1706 23.3758 61.5845 22.7898C60.9985 22.2037 60.2036 21.8745 59.3748 21.8745ZM21.8748 38.2807V46.8745C21.8748 47.7033 22.2041 48.4981 22.7901 49.0842C23.3762 49.6702 24.171 49.9995 24.9998 49.9995H39.8436V38.2807H21.8748Z" fill="#FFD7AE"/>
</g>
<path d="M23.4961 18.957C23.6816 15.9492 25.1855 12.9805 27.793 11.1641C27.545 10.6317 27.1507 10.1808 26.6562 9.86407C26.1617 9.54729 25.5873 9.37767 25 9.375H3.125C2.2962 9.375 1.50134 9.70424 0.915291 10.2903C0.32924 10.8763 0 11.6712 0 12.5L0 46.875C0 47.7038 0.32924 48.4987 0.915291 49.0847C1.50134 49.6708 2.2962 50 3.125 50H19.6191C19.0575 49.0538 18.7575 47.9753 18.75 46.875V25C18.7552 23.6081 19.2249 22.2577 20.0847 21.163C20.9445 20.0683 22.145 19.292 23.4961 18.957ZM44.5312 33.5938V25H50.9648C52.5542 25.0032 54.0923 24.4375 55.3008 23.4053H55.3057L55.3125 23.3994L55.332 23.3828L55.3516 23.3652C56.1283 22.6916 56.7503 21.8581 57.175 20.9218C57.5997 19.9855 57.8172 18.9685 57.8125 17.9404C57.8108 16.3234 57.2711 14.753 56.2783 13.4766C55.6498 12.6693 54.846 12.0155 53.9277 11.5645C52.9459 11.082 51.8655 10.834 50.7715 10.8398C47.9063 10.8398 45.833 12.6641 44.5977 14.1943C43.4746 15.5879 42.6758 17.1484 42.1875 18.2617C41.6992 17.1426 40.8955 15.5742 39.7705 14.1836C38.5381 12.6602 36.4678 10.8438 33.6035 10.8438C32.5101 10.8358 31.4297 11.0815 30.4473 11.5615C29.5287 12.0134 28.7249 12.6683 28.0967 13.4766C27.1039 14.753 26.5642 16.3234 26.5625 17.9404C26.5584 18.9669 26.7758 19.9822 27.1999 20.9171C27.6239 21.8519 28.2446 22.6843 29.0195 23.3574L29.0391 23.375L29.0586 23.3916L29.0645 23.3975H29.0693C30.278 24.4336 31.8181 25.0022 33.4102 25H39.8438V33.5938H21.875V38.2812H39.8438V50H44.5312V38.2812H62.5V33.5938H44.5312ZM50.7715 15.5615C52.5 15.5615 53.125 16.9873 53.125 17.9404C53.1277 18.2958 53.0521 18.6475 52.9036 18.9703C52.7551 19.2932 52.5373 19.5794 52.2656 19.8086L52.2598 19.8145C51.8974 20.119 51.4382 20.2842 50.9648 20.2803H46.4258C47.2852 18.2852 48.9453 15.5615 50.7715 15.5615ZM33.4102 20.2803C32.9368 20.2842 32.4776 20.119 32.1152 19.8145L32.1094 19.8086C31.8377 19.5794 31.6199 19.2932 31.4714 18.9703C31.3229 18.6475 31.2473 18.2958 31.25 17.9404C31.25 16.9873 31.875 15.5615 33.6035 15.5615C35.4297 15.5615 37.0801 18.2549 37.9492 20.2803H33.4102Z" fill="#FFA856"/>
</g>
<defs>
<filter id="filter0_bi_2521_8028" x="-4" y="-4" width="70.5" height="58" filterUnits="userSpaceOnUse" color-interpolation-filters="sRGB">
<feFlood flood-opacity="0" result="BackgroundImageFix"/>
<feGaussianBlur in="BackgroundImage" stdDeviation="2"/>
<feComposite in2="SourceAlpha" operator="in" result="effect1_backgroundBlur_2521_8028"/>
<feBlend mode="normal" in="SourceGraphic" in2="effect1_backgroundBlur_2521_8028" result="shape"/>
<feColorMatrix in="SourceAlpha" type="matrix" values="0 0 0 0 0 0 0 0 0 0 0 0 0 0 0 0 0 0 127 0" result="hardAlpha"/>
<feOffset dx="0.2" dy="0.1"/>
<feGaussianBlur stdDeviation="0.5"/>
<feComposite in2="hardAlpha" operator="arithmetic" k2="-1" k3="1"/>
<feColorMatrix type="matrix" values="0 0 0 0 1 0 0 0 0 1 0 0 0 0 1 0 0 0 0.6 0"/>
<feBlend mode="normal" in2="shape" result="effect2_innerShadow_2521_8028"/>
</filter>
<filter id="filter1_bi_2521_8028" x="-1.65332" y="-4" width="68.1533" height="58" filterUnits="userSpaceOnUse" color-interpolation-filters="sRGB">
<feFlood flood-opacity="0" result="BackgroundImageFix"/>
<feGaussianBlur in="BackgroundImage" stdDeviation="2"/>
<feComposite in2="SourceAlpha" operator="in" result="effect1_backgroundBlur_2521_8028"/>
<feBlend mode="normal" in="SourceGraphic" in2="effect1_backgroundBlur_2521_8028" result="shape"/>
<feColorMatrix in="SourceAlpha" type="matrix" values="0 0 0 0 0 0 0 0 0 0 0 0 0 0 0 0 0 0 127 0" result="hardAlpha"/>
<feOffset dx="0.2" dy="0.1"/>
<feGaussianBlur stdDeviation="0.5"/>
<feComposite in2="hardAlpha" operator="arithmetic" k2="-1" k3="1"/>
<feColorMatrix type="matrix" values="0 0 0 0 1 0 0 0 0 1 0 0 0 0 1 0 0 0 0.6 0"/>
<feBlend mode="normal" in2="shape" result="effect2_innerShadow_2521_8028"/>
</filter>
<clipPath id="clip0_2521_8028">
<rect width="62.5" height="50" fill="white"/>
</clipPath>
</defs>
</svg>
