<svg width="48" height="44" viewBox="0 0 48 44" fill="none" xmlns="http://www.w3.org/2000/svg">
<g clip-path="url(#clip0_2954_6161)">
<path d="M0 10.957V36.9788C0 38.0685 0.421427 39.1135 1.17157 39.8841C1.92172 40.6546 2.93913 41.0875 4 41.0875H44C45.0609 41.0875 46.0783 40.6546 46.8284 39.8841C47.5786 39.1135 48 38.0685 48 36.9788V10.957H0ZM14.6667 16.4353C15.7215 16.4353 16.7526 16.7566 17.6297 17.3585C18.5068 17.9605 19.1904 18.8161 19.594 19.8171C19.9977 20.8181 20.1033 21.9196 19.8975 22.9823C19.6917 24.045 19.1838 25.0211 18.4379 25.7873C17.692 26.5534 16.7417 27.0752 15.7071 27.2866C14.6726 27.4979 13.6002 27.3894 12.6257 26.9748C11.6511 26.5602 10.8182 25.858 10.2322 24.9571C9.64613 24.0562 9.33333 22.9971 9.33333 21.9136C9.33333 20.4606 9.89524 19.0672 10.8954 18.0398C11.8956 17.0125 13.2522 16.4353 14.6667 16.4353ZM22.4417 35.6092H6.89167C6.025 35.6092 5.325 34.7532 5.59167 33.9144C5.94119 32.8146 6.62021 31.8566 7.53169 31.1771C8.44316 30.4976 9.54043 30.1314 10.6667 30.1309H11.35C12.4004 30.583 13.5278 30.8157 14.6667 30.8157C15.8055 30.8157 16.933 30.583 17.9833 30.1309H18.6667C19.7929 30.1314 20.8902 30.4976 21.8016 31.1771C22.7131 31.8566 23.3921 32.8146 23.7417 33.9144C24.0083 34.7618 23.3083 35.6092 22.4417 35.6092ZM42.6667 29.4462C42.6667 29.6278 42.5964 29.802 42.4714 29.9304C42.3464 30.0588 42.1768 30.1309 42 30.1309H30C29.8232 30.1309 29.6536 30.0588 29.5286 29.9304C29.4036 29.802 29.3333 29.6278 29.3333 29.4462V28.0766C29.3333 27.895 29.4036 27.7208 29.5286 27.5924C29.6536 27.464 29.8232 27.3918 30 27.3918H42C42.1768 27.3918 42.3464 27.464 42.4714 27.5924C42.5964 27.7208 42.6667 27.895 42.6667 28.0766V29.4462ZM42.6667 23.9679C42.6667 24.1495 42.5964 24.3237 42.4714 24.4521C42.3464 24.5805 42.1768 24.6527 42 24.6527H30C29.8232 24.6527 29.6536 24.5805 29.5286 24.4521C29.4036 24.3237 29.3333 24.1495 29.3333 23.9679V22.5983C29.3333 22.4167 29.4036 22.2425 29.5286 22.1141C29.6536 21.9857 29.8232 21.9136 30 21.9136H42C42.1768 21.9136 42.3464 21.9857 42.4714 22.1141C42.5964 22.2425 42.6667 22.4167 42.6667 22.5983V23.9679ZM42.6667 18.4896C42.6667 18.6713 42.5964 18.8454 42.4714 18.9739C42.3464 19.1023 42.1768 19.1744 42 19.1744H30C29.8232 19.1744 29.6536 19.1023 29.5286 18.9739C29.4036 18.8454 29.3333 18.6713 29.3333 18.4896V17.1201C29.3333 16.9385 29.4036 16.7643 29.5286 16.6359C29.6536 16.5074 29.8232 16.4353 30 16.4353H42C42.1768 16.4353 42.3464 16.5074 42.4714 16.6359C42.5964 16.7643 42.6667 16.9385 42.6667 17.1201V18.4896Z" fill="#CCD8E5"/>
<path d="M18.6667 30.1296H17.9833C16.933 30.5816 15.8055 30.8144 14.6667 30.8144C13.5278 30.8144 12.4004 30.5816 11.35 30.1296H10.6667C9.54043 30.13 8.44316 30.4962 7.53169 31.1757C6.62021 31.8552 5.94119 32.8133 5.59167 33.913C5.325 34.7519 6.025 35.6078 6.89167 35.6078H22.4417C23.3083 35.6078 24.0083 34.7604 23.7417 33.913C23.3921 32.8133 22.7131 31.8552 21.8016 31.1757C20.8902 30.4962 19.7929 30.13 18.6667 30.1296ZM44 2.73828H4C2.93913 2.73828 1.92172 3.17116 1.17157 3.94169C0.421427 4.71222 0 5.75728 0 6.84698L0 10.9557H48V6.84698C48 5.75728 47.5786 4.71222 46.8284 3.94169C46.0783 3.17116 45.0609 2.73828 44 2.73828ZM14.6667 27.3905C15.7215 27.3905 16.7526 27.0692 17.6297 26.4672C18.5068 25.8652 19.1904 25.0097 19.594 24.0086C19.9977 23.0076 20.1033 21.9061 19.8975 20.8434C19.6917 19.7808 19.1838 18.8046 18.4379 18.0385C17.692 17.2723 16.7417 16.7506 15.7071 16.5392C14.6726 16.3278 13.6002 16.4363 12.6257 16.8509C11.6511 17.2656 10.8182 17.9677 10.2322 18.8686C9.64613 19.7695 9.33333 20.8287 9.33333 21.9122C9.33333 23.3651 9.89524 24.7585 10.8954 25.7859C11.8956 26.8133 13.2522 27.3905 14.6667 27.3905Z" fill="#3D7EFF"/>
</g>
<defs>
<clipPath id="clip0_2954_6161">
<rect width="48" height="43.8261" fill="white"/>
</clipPath>
</defs>
</svg>
