<svg width="199" height="147" viewBox="0 0 199 147" fill="none" xmlns="http://www.w3.org/2000/svg">
<g filter="url(#filter0_bi_3054_6009)">
<rect x="27.0977" y="59.7773" width="2.8" height="25.2" rx="1.4" transform="rotate(42.6058 27.0977 59.7773)" fill="url(#paint0_linear_3054_6009)"/>
<rect x="173.863" y="11.1992" width="2.8" height="25.2" rx="1.4" transform="rotate(42.6058 173.863 11.1992)" fill="#BCE4F1" fill-opacity="0.5"/>
<rect x="192.062" y="67.1992" width="2.8" height="25.2" rx="1.4" transform="rotate(42.6058 192.062 67.1992)" fill="#BCE4F1" fill-opacity="0.5"/>
<rect x="154.262" y="124.602" width="2.8" height="25.2" rx="1.4" transform="rotate(42.6058 154.262 124.602)" fill="url(#paint1_linear_3054_6009)"/>
<rect x="67.4609" y="103.602" width="2.8" height="25.2" rx="1.4" transform="rotate(42.6058 67.4609 103.602)" fill="#BCE4F1" fill-opacity="0.5"/>
<circle cx="37.8016" cy="88.2" r="4.2" fill="#BCE4F1" fill-opacity="0.5"/>
<circle cx="19.5984" cy="120.399" r="4.2" fill="#BCE4F1" fill-opacity="0.5"/>
<circle cx="91.0008" cy="142.802" r="4.2" fill="#BCE4F1" fill-opacity="0.5"/>
<circle cx="135.8" cy="110.601" r="2.8" fill="#BCE4F1" fill-opacity="0.5"/>
<circle cx="76.9992" cy="29.4016" r="2.8" fill="#BCE4F1" fill-opacity="0.5"/>
<circle cx="124.601" cy="2.8" r="2.8" fill="#BCE4F1" fill-opacity="0.5"/>
<circle cx="2.8" cy="43.4016" r="2.8" fill="#BCE4F1" fill-opacity="0.5"/>
<circle cx="194.598" cy="98.0008" r="4.2" fill="url(#paint2_linear_3054_6009)"/>
<circle cx="145.601" cy="43.4016" r="2.8" fill="#BCE4F1" fill-opacity="0.5"/>
</g>
<g filter="url(#filter1_bi_3054_6009)">
<rect x="68.8008" y="37" width="86.4" height="64.8" rx="2" fill="url(#paint3_linear_3054_6009)"/>
</g>
<g filter="url(#filter2_bi_3054_6009)">
<rect x="58" y="42.3984" width="108" height="81" rx="2" fill="#BCE4F1" fill-opacity="0.5"/>
</g>
<path fill-rule="evenodd" clip-rule="evenodd" d="M103 74.3482C103 68.147 97.9512 63.0977 91.75 63.0977C85.5488 63.0977 80.5003 68.147 80.5003 74.3482C80.5003 80.5486 85.5488 85.5979 91.75 85.5979C97.9512 85.5979 103 80.5486 103 74.3482ZM108.625 108.098C110.488 108.098 112 106.586 112 104.723V102.473C112 95.6463 106.451 90.0977 99.6247 90.0977H83.8753C77.0486 90.0977 71.5 95.6463 71.5 102.473V104.723C71.5 106.586 73.012 108.098 74.875 108.098H108.625ZM124.375 108.098H149.125C150.988 108.098 152.5 106.586 152.5 104.723C152.5 102.86 150.988 101.348 149.125 101.348H124.375C122.512 101.348 121 102.86 121 104.723C121 106.586 122.512 108.098 124.375 108.098ZM124.375 90.0977H149.125C150.988 90.0977 152.5 88.5857 152.5 86.7227C152.5 84.8596 150.988 83.3477 149.125 83.3477H124.375C122.512 83.3477 121 84.8596 121 86.7227C121 88.5857 122.512 90.0977 124.375 90.0977ZM124.375 72.0979H149.125C150.988 72.0979 152.5 70.5859 152.5 68.7229C152.5 66.8599 150.988 65.3479 149.125 65.3479H124.375C122.512 65.3479 121 66.8599 121 68.7229C121 70.5859 122.512 72.0979 124.375 72.0979Z" fill="url(#paint4_linear_3054_6009)"/>
<defs>
<filter id="filter0_bi_3054_6009" x="-4" y="-4" width="206.797" height="155" filterUnits="userSpaceOnUse" color-interpolation-filters="sRGB">
<feFlood flood-opacity="0" result="BackgroundImageFix"/>
<feGaussianBlur in="BackgroundImage" stdDeviation="2"/>
<feComposite in2="SourceAlpha" operator="in" result="effect1_backgroundBlur_3054_6009"/>
<feBlend mode="normal" in="SourceGraphic" in2="effect1_backgroundBlur_3054_6009" result="shape"/>
<feColorMatrix in="SourceAlpha" type="matrix" values="0 0 0 0 0 0 0 0 0 0 0 0 0 0 0 0 0 0 127 0" result="hardAlpha"/>
<feOffset dx="0.2" dy="0.1"/>
<feGaussianBlur stdDeviation="0.5"/>
<feComposite in2="hardAlpha" operator="arithmetic" k2="-1" k3="1"/>
<feColorMatrix type="matrix" values="0 0 0 0 1 0 0 0 0 1 0 0 0 0 1 0 0 0 0.6 0"/>
<feBlend mode="normal" in2="shape" result="effect2_innerShadow_3054_6009"/>
</filter>
<filter id="filter1_bi_3054_6009" x="64.8008" y="33" width="94.3984" height="72.8008" filterUnits="userSpaceOnUse" color-interpolation-filters="sRGB">
<feFlood flood-opacity="0" result="BackgroundImageFix"/>
<feGaussianBlur in="BackgroundImage" stdDeviation="2"/>
<feComposite in2="SourceAlpha" operator="in" result="effect1_backgroundBlur_3054_6009"/>
<feBlend mode="normal" in="SourceGraphic" in2="effect1_backgroundBlur_3054_6009" result="shape"/>
<feColorMatrix in="SourceAlpha" type="matrix" values="0 0 0 0 0 0 0 0 0 0 0 0 0 0 0 0 0 0 127 0" result="hardAlpha"/>
<feOffset dx="0.2" dy="0.1"/>
<feGaussianBlur stdDeviation="0.5"/>
<feComposite in2="hardAlpha" operator="arithmetic" k2="-1" k3="1"/>
<feColorMatrix type="matrix" values="0 0 0 0 1 0 0 0 0 1 0 0 0 0 1 0 0 0 0.6 0"/>
<feBlend mode="normal" in2="shape" result="effect2_innerShadow_3054_6009"/>
</filter>
<filter id="filter2_bi_3054_6009" x="54" y="38.3984" width="116" height="89" filterUnits="userSpaceOnUse" color-interpolation-filters="sRGB">
<feFlood flood-opacity="0" result="BackgroundImageFix"/>
<feGaussianBlur in="BackgroundImage" stdDeviation="2"/>
<feComposite in2="SourceAlpha" operator="in" result="effect1_backgroundBlur_3054_6009"/>
<feBlend mode="normal" in="SourceGraphic" in2="effect1_backgroundBlur_3054_6009" result="shape"/>
<feColorMatrix in="SourceAlpha" type="matrix" values="0 0 0 0 0 0 0 0 0 0 0 0 0 0 0 0 0 0 127 0" result="hardAlpha"/>
<feOffset dx="0.2" dy="0.1"/>
<feGaussianBlur stdDeviation="0.5"/>
<feComposite in2="hardAlpha" operator="arithmetic" k2="-1" k3="1"/>
<feColorMatrix type="matrix" values="0 0 0 0 1 0 0 0 0 1 0 0 0 0 1 0 0 0 0.6 0"/>
<feBlend mode="normal" in2="shape" result="effect2_innerShadow_3054_6009"/>
</filter>
<linearGradient id="paint0_linear_3054_6009" x1="27.2875" y1="67.4655" x2="29.8013" y2="67.4389" gradientUnits="userSpaceOnUse">
<stop stop-color="#0B5CD6"/>
<stop offset="1" stop-color="#3D7EFF"/>
</linearGradient>
<linearGradient id="paint1_linear_3054_6009" x1="154.452" y1="132.29" x2="156.965" y2="132.263" gradientUnits="userSpaceOnUse">
<stop stop-color="#0B5CD6"/>
<stop offset="1" stop-color="#3D7EFF"/>
</linearGradient>
<linearGradient id="paint2_linear_3054_6009" x1="190.968" y1="96.3635" x2="198.443" y2="95.6516" gradientUnits="userSpaceOnUse">
<stop stop-color="#0B5CD6"/>
<stop offset="1" stop-color="#3D7EFF"/>
</linearGradient>
<linearGradient id="paint3_linear_3054_6009" x1="74.6584" y1="56.7695" x2="151.006" y2="47.0746" gradientUnits="userSpaceOnUse">
<stop stop-color="#0B5CD6"/>
<stop offset="1" stop-color="#3D7EFF"/>
</linearGradient>
<linearGradient id="paint4_linear_3054_6009" x1="76.9915" y1="76.8266" x2="147.645" y2="64.7147" gradientUnits="userSpaceOnUse">
<stop stop-color="#0B5CD6"/>
<stop offset="1" stop-color="#3D7EFF"/>
</linearGradient>
</defs>
</svg>
