<svg width="98" height="74" viewBox="0 0 98 74" fill="none" xmlns="http://www.w3.org/2000/svg">
<path d="M42.4809 17.2477C42.8164 11.8336 45.5355 6.48984 50.2497 3.22031C49.8013 2.26207 49.0885 1.45051 48.1944 0.880317C47.3003 0.310126 46.2618 0.00481398 45.2 0H5.65C4.15153 0 2.71443 0.592632 1.65485 1.64752C0.595266 2.70242 0 4.13316 0 5.625L0 67.5C0 68.9918 0.595266 70.4226 1.65485 71.4775C2.71443 72.5324 4.15153 73.125 5.65 73.125H35.4714C34.4559 71.4219 33.9136 69.4805 33.9 67.5V28.125C33.9094 25.6195 34.7587 23.1888 36.3131 21.2184C37.8676 19.248 40.0382 17.8505 42.4809 17.2477ZM80.5125 43.5938V28.125H92.1444C95.018 28.1308 97.7988 27.1126 99.9838 25.2545H99.9926L100.005 25.2439L100.04 25.2141L100.076 25.1824C101.48 23.9699 102.604 22.4696 103.372 20.7843C104.14 19.099 104.534 17.2684 104.525 15.4178C104.522 12.5072 103.546 9.68032 101.751 7.38281C100.615 5.92981 99.1616 4.75291 97.5013 3.94102C95.7261 3.07263 93.7727 2.62616 91.7948 2.63672C86.6145 2.63672 82.8661 5.92031 80.6326 8.6748C78.6021 11.1832 77.1578 13.9922 76.275 15.9961C75.3922 13.9816 73.9391 11.1586 71.9051 8.65547C69.6769 5.91328 65.9337 2.64375 60.7552 2.64375C58.7782 2.62937 56.8249 3.07161 55.0487 3.93574C53.3879 4.74916 51.9346 5.9279 50.7988 7.38281C49.0039 9.68032 48.028 12.5072 48.025 15.4178C48.0177 17.2655 48.4107 19.093 49.1773 20.7757C49.944 22.4584 51.0661 23.9567 52.4673 25.1684L52.5026 25.2L52.5379 25.2299L52.5485 25.2404H52.5574C54.7427 27.1056 57.5271 28.129 60.4056 28.125H72.0375V43.5938H39.55V52.0312H72.0375V73.125H80.5125V52.0312H113V43.5938H80.5125ZM91.7948 11.1357C94.92 11.1357 96.05 13.7022 96.05 15.4178C96.0549 16.0575 95.9183 16.6904 95.6497 17.2716C95.3812 17.8528 94.9874 18.3679 94.4963 18.7805L94.4856 18.791C93.8305 19.3392 93.0002 19.6365 92.1444 19.6295H83.9378C85.4916 16.0383 88.4931 11.1357 91.7948 11.1357ZM60.4056 19.6295C59.5498 19.6365 58.7195 19.3392 58.0643 18.791L58.0537 18.7805C57.5626 18.3679 57.1688 17.8528 56.9003 17.2716C56.6317 16.6904 56.4951 16.0575 56.5 15.4178C56.5 13.7022 57.63 11.1357 60.7552 11.1357C64.0569 11.1357 67.0408 15.9838 68.6122 19.6295H60.4056Z" fill="#FFA856"/>
</svg>
