<svg width="168" height="159" viewBox="0 0 168 159" fill="none" xmlns="http://www.w3.org/2000/svg">
<g filter="url(#filter0_f_3822_6036)">
<g clip-path="url(#clip0_3822_6036)">
<rect width="68.3703" height="87.5001" transform="matrix(0.977442 0.211202 -0.206031 0.978545 57.042 25.0273)" fill="white"/>
<path d="M147.803 88.1207C140.362 123.46 105.715 145.925 70.4149 138.298C35.1152 130.67 12.5312 95.839 19.9718 60.4994C27.4125 25.1599 62.0602 2.69494 97.3599 10.3224C132.66 17.9498 155.244 52.7812 147.803 88.1207ZM113.215 71.1168C116.28 62.8775 110.768 56.901 102.556 51.9342L107.857 41.0212L101.212 37.7561L96.0507 48.3817C94.3038 47.5232 92.5014 46.6803 90.7103 45.8439L95.9069 35.1489L89.2657 31.8847L83.9637 42.7932C82.5108 42.1154 81.085 41.4477 79.7071 40.7718L79.7227 40.7374L70.5594 36.2298L67.1149 43.3251C67.1149 43.3251 72.0673 45.6434 71.9419 45.6934C74.6331 47.017 74.7503 49.0097 74.3502 50.4827L68.3116 62.9151C68.497 63.0074 68.7354 63.1342 68.9915 63.3066C68.7699 63.1981 68.5337 63.0801 68.289 62.9625L59.8271 80.3777C59.2976 81.1664 58.1439 82.2719 56.2619 81.3511C56.3103 81.4681 51.4323 78.9757 51.4323 78.9757L46.2584 86.2598L54.9059 90.5094C56.5141 91.3023 58.0844 92.1077 59.6338 92.8814L54.2752 103.92L60.9122 107.183L66.2167 96.2625C67.9684 97.168 69.7297 98.0545 71.5003 98.922L66.217 109.791L72.8621 113.056L78.2161 102.039C89.6985 106.889 98.8842 107.918 104.949 97.9083C109.835 89.8491 107.692 84.1282 102.09 79.4892C106.895 79.422 110.982 77.1507 113.215 71.1168V71.1168ZM92.4549 90.1478C88.4518 98.3977 74.7802 90.516 70.2747 88.3071L77.3802 73.6844C81.8841 75.8993 96.6344 81.545 92.4549 90.1478ZM99.3866 67.9971C95.7394 75.5001 84.3824 68.8337 80.6312 66.9905L87.0742 53.7278C90.8256 55.571 103.188 60.1696 99.3866 67.9971Z" fill="url(#paint0_linear_3822_6036)"/>
</g>
</g>
<defs>
<filter id="filter0_f_3822_6036" x="0" y="-10" width="167.77" height="168.617" filterUnits="userSpaceOnUse" color-interpolation-filters="sRGB">
<feFlood flood-opacity="0" result="BackgroundImageFix"/>
<feBlend mode="normal" in="SourceGraphic" in2="BackgroundImageFix" result="shape"/>
<feGaussianBlur stdDeviation="2" result="effect1_foregroundBlur_3822_6036"/>
</filter>
<linearGradient id="paint0_linear_3822_6036" x1="33.8903" y1="37.4277" x2="149.99" y2="50.5577" gradientUnits="userSpaceOnUse">
<stop stop-color="#709FFF" stop-opacity="0.75"/>
<stop offset="1" stop-color="#EBF2FF"/>
</linearGradient>
<clipPath id="clip0_3822_6036">
<rect width="135" height="135" fill="white" transform="matrix(0.977442 0.211202 -0.206031 0.978545 31.8145 -6)"/>
</clipPath>
</defs>
</svg>
