<svg width="29" height="29" viewBox="0 0 29 29" fill="none" xmlns="http://www.w3.org/2000/svg">
<path d="M14.5 29C22.5081 29 29 22.5081 29 14.5C29 6.49187 22.5081 0 14.5 0C6.49187 0 0 6.49187 0 14.5C0 22.5081 6.49187 29 14.5 29Z" fill="#03A9F4"/>
<path d="M23.8924 8.67535C23.1859 8.9839 22.4386 9.18889 21.6736 9.28396C22.48 8.80572 23.0829 8.04806 23.3678 7.15475C22.6129 7.6028 21.787 7.91834 20.9257 8.08771C20.3979 7.52326 19.7124 7.1307 18.9585 6.96108C18.2046 6.79146 17.4171 6.85264 16.6984 7.13665C15.9797 7.42067 15.3631 7.91438 14.9288 8.55357C14.4945 9.19276 14.2626 9.94784 14.2633 10.7206C14.2606 11.0156 14.2907 11.3099 14.353 11.5982C12.8209 11.523 11.3219 11.1254 9.95394 10.4314C8.58597 9.73735 7.37981 8.76257 6.41422 7.57067C5.9179 8.41856 5.76414 9.42398 5.98435 10.3815C6.20457 11.3389 6.78215 12.1761 7.59902 12.722C6.98931 12.7056 6.3925 12.5426 5.85902 12.2469V12.2889C5.86074 13.1776 6.16837 14.0387 6.73019 14.7274C7.29201 15.416 8.07378 15.8902 8.94409 16.0703C8.61473 16.1569 8.27533 16.1992 7.93481 16.1963C7.68962 16.2008 7.44465 16.179 7.20409 16.1314C7.45343 16.8957 7.93346 17.5641 8.57816 18.0444C9.22286 18.5248 10.0006 18.7936 10.8043 18.8139C9.44229 19.8785 7.76324 20.4567 6.03455 20.4566C5.72654 20.4592 5.41869 20.4414 5.11304 20.4032C6.87569 21.5396 8.93028 22.1401 11.0275 22.1317C18.1153 22.1317 21.9903 16.2611 21.9903 11.1728C21.9903 11.003 21.9903 10.8389 21.9769 10.6748C22.7316 10.1302 23.3807 9.45264 23.8924 8.67535Z" fill="white"/>
</svg>
